<svg width="25" height="25" viewBox="0 0 25 25" fill="none" xmlns="http://www.w3.org/2000/svg">
<path d="M24.8242 12.7949C24.8242 19.4828 19.4027 24.9043 12.7148 24.9043C6.027 24.9043 0.605469 19.4828 0.605469 12.7949C0.605469 6.10708 6.027 0.685547 12.7148 0.685547C19.4027 0.685547 24.8242 6.10708 24.8242 12.7949ZM17.9077 11.0698C18.1487 9.45854 16.9218 8.59233 15.2441 8.0145L15.7883 5.83179L14.4596 5.50068L13.9297 7.62588C13.5804 7.53882 13.2216 7.45674 12.8651 7.37539L13.3988 5.23623L12.0708 4.90513L11.5262 7.08706C11.237 7.02119 10.9532 6.9561 10.6777 6.88765L10.6792 6.88081L8.84668 6.42329L8.49321 7.84233C8.49321 7.84233 9.4791 8.06826 9.4583 8.08223C9.99648 8.21655 10.0937 8.57266 10.0774 8.85493L9.45752 11.3415C9.49463 11.351 9.54268 11.3646 9.59565 11.3858C9.55137 11.3748 9.50405 11.3627 9.45522 11.351L8.58628 14.8343C8.52041 14.9978 8.35352 15.243 7.97734 15.1499C7.99058 15.1692 7.01152 14.9088 7.01152 14.9088L6.35186 16.4297L8.08105 16.8607C8.40273 16.9413 8.71802 17.0257 9.02832 17.1051L8.47842 19.3128L9.80566 19.6439L10.3502 17.4597C10.7022 17.5551 11.0552 17.6467 11.4092 17.7344L10.8665 19.9084L12.1952 20.2395L12.7451 18.036C15.0109 18.4647 16.7148 18.2918 17.4319 16.2427C18.0099 14.5928 17.4032 13.6411 16.211 13.0205C17.0792 12.8204 17.7332 12.2494 17.9077 11.0698V11.0698ZM14.8717 15.3266C14.461 16.9765 11.6828 16.0846 10.7821 15.8609L11.5118 12.9362C12.4125 13.1609 15.3008 13.606 14.8717 15.3266ZM15.2827 11.046C14.908 12.5468 12.5956 11.7843 11.8455 11.5974L12.507 8.94468C13.2572 9.13159 15.6729 9.48047 15.2827 11.046Z" fill="#FD5F47"/>
</svg>
