<svg width="22" height="22" viewBox="0 0 22 22" fill="none" xmlns="http://www.w3.org/2000/svg">
<path d="M9.10645 12.7441C9.10645 13.6865 8.42285 13.9844 7.58301 13.9844H5.38086V11.4014H7.62695C8.53516 11.4063 9.10645 11.7822 9.10645 12.7441V12.7441ZM8.73047 8.72559C8.73047 7.86133 8.06152 7.65625 7.31934 7.65625H5.38574V9.84375H7.4707C8.20801 9.84375 8.73047 9.52148 8.73047 8.72559V8.72559ZM15.1904 9.8584C14.2969 9.8584 13.7012 10.415 13.6426 11.3086H16.6797C16.5967 10.4053 16.1279 9.8584 15.1904 9.8584ZM21.875 2.34375V19.5312C21.875 20.8252 20.8252 21.875 19.5312 21.875H2.34375C1.0498 21.875 0 20.8252 0 19.5312V2.34375C0 1.0498 1.0498 0 2.34375 0H19.5312C20.8252 0 21.875 1.0498 21.875 2.34375ZM13.2666 7.4707H17.0654V6.54785H13.2666V7.4707ZM11.167 12.8564C11.167 11.6797 10.6104 10.6641 9.45801 10.3369C10.2979 9.93652 10.7373 9.47266 10.7373 8.53027C10.7373 6.66504 9.3457 6.21094 7.73926 6.21094H3.32031V15.5859H7.86621C9.57031 15.5762 11.167 14.7607 11.167 12.8564V12.8564ZM18.5547 12.1338C18.5547 10.127 17.3779 8.45215 15.2539 8.45215C13.1836 8.45215 11.7822 10.0049 11.7822 12.0459C11.7822 14.1602 13.1152 15.6104 15.2539 15.6104C16.875 15.6104 17.9248 14.8828 18.4326 13.3252H16.7871C16.6064 13.9062 15.8789 14.209 15.3125 14.209C14.2188 14.209 13.6475 13.5693 13.6475 12.4854H18.54C18.5449 12.373 18.5547 12.251 18.5547 12.1338Z" fill="#FD5F47"/>
</svg>
